<?xml version="1.0" standalone="no"?>
<!DOCTYPE svg PUBLIC "-//W3C//DTD SVG 1.1//EN" "http://www.w3.org/Graphics/SVG/1.1/DTD/svg11.dtd">
<svg version="1.1" xmlns="http://www.w3.org/2000/svg" viewBox="0 0 1586.1250155538082 560.6447754069059" width="1586.1250155538082" height="560.6447754069059"><!-- svg-source:excalidraw --><metadata></metadata><defs><style class="style-fonts">
      </style></defs><g stroke-linecap="round" transform="translate(706.1088852473919 275.5094859263577) rotate(0 23 124.58399550000001)"><path d="M11.5 0 C21.74 -0.52, 25.7 -0.27, 34.5 0 C41.49 2.57, 50.67 6.03, 46 11.5 C47.22 70.22, 44.45 119.48, 46 237.67 C41.69 241.17, 46.48 248.71, 34.5 249.17 C31.04 248.75, 23.11 248.21, 11.5 249.17 C6.97 249.29, 4 249.7, 0 237.67 C-3.53 158.2, 2.85 73.18, 0 11.5 C-5.51 1.11, 0.31 -1.22, 11.5 0" stroke="none" stroke-width="0" fill="#e03131"></path><path d="M11.5 0 C19.03 -2.86, 20.07 -3.47, 34.5 0 M11.5 0 C20.41 1.8, 25.78 -1.77, 34.5 0 M34.5 0 C40.33 -1.93, 45.58 5.19, 46 11.5 M34.5 0 C40.42 3.88, 47.78 7.46, 46 11.5 M46 11.5 C49.9 86.92, 51.21 167.28, 46 237.67 M46 11.5 C42.76 66.19, 42 119.02, 46 237.67 M46 237.67 C46.46 245.97, 46.14 246.69, 34.5 249.17 M46 237.67 C42.53 247.19, 44.23 249.91, 34.5 249.17 M34.5 249.17 C24.26 247.22, 18.4 249.59, 11.5 249.17 M34.5 249.17 C26.47 250.9, 21.42 249.21, 11.5 249.17 M11.5 249.17 C2.65 247.52, 1.24 245.94, 0 237.67 M11.5 249.17 C5.63 253.31, 2.09 242.62, 0 237.67 M0 237.67 C-0.5 155.28, 2.72 68.92, 0 11.5 M0 237.67 C-1.23 185.05, -0.12 135.78, 0 11.5 M0 11.5 C3.33 0.41, 0.29 2.8, 11.5 0 M0 11.5 C-2.75 4.98, 0.04 2.2, 11.5 0" stroke="#1e1e1e" stroke-width="2" fill="none"></path></g><g stroke-linecap="round" transform="translate(771.576208247392 52.34149392635754) rotate(0 23 236.16799149999997)"><path d="M11.5 0 C14.54 -0.38, 23.27 2.65, 34.5 0 C46.83 2.2, 43.02 4.77, 46 11.5 C45.01 150.54, 44.31 291.67, 46 460.84 C50.31 468.04, 45.2 476.63, 34.5 472.34 C34.29 471.88, 27.4 472.46, 11.5 472.34 C7.84 476.7, 3.01 470.15, 0 460.84 C4.97 332.18, -0.21 207.3, 0 11.5 C-3.53 2.62, 1.28 4.86, 11.5 0" stroke="none" stroke-width="0" fill="#e03131"></path><path d="M11.5 0 C13.16 -3.47, 23.45 -0.38, 34.5 0 M11.5 0 C16.22 -2.27, 23.28 -1.35, 34.5 0 M34.5 0 C41.75 1.36, 44.48 7.21, 46 11.5 M34.5 0 C43.95 3.63, 48.12 6.49, 46 11.5 M46 11.5 C49.79 144.24, 46.93 276.3, 46 460.84 M46 11.5 C44.91 112.08, 45.57 213.5, 46 460.84 M46 460.84 C49.97 466.02, 39.15 473.95, 34.5 472.34 M46 460.84 C48.07 469.24, 41.54 475.26, 34.5 472.34 M34.5 472.34 C23.06 472.17, 16.05 469.14, 11.5 472.34 M34.5 472.34 C25.27 472.43, 17.27 471.84, 11.5 472.34 M11.5 472.34 C5.08 472.94, 1.56 472.1, 0 460.84 M11.5 472.34 C5.92 469.62, 3.63 467.18, 0 460.84 M0 460.84 C2.96 294.61, 0.64 126.06, 0 11.5 M0 460.84 C0.57 326.28, 0.73 189.83, 0 11.5 M0 11.5 C-3.54 6.63, 1.44 1, 11.5 0 M0 11.5 C-3.79 6.03, 7.41 4.33, 11.5 0" stroke="#1e1e1e" stroke-width="2" fill="none"></path></g><g stroke-linecap="round" transform="translate(640.641562247392 306.5094859263577) rotate(0 23 109.08399550000001)"><path d="M11.5 0 C17.44 2.62, 29.38 2.25, 34.5 0 C39.18 0.94, 46.78 4.2, 46 11.5 C38.89 77.73, 47.51 151.82, 46 206.67 C49.03 218.62, 37.82 222.85, 34.5 218.17 C30.7 218.23, 24.64 222.48, 11.5 218.17 C6.84 219.82, -1.08 212.08, 0 206.67 C-10.57 143.23, -8.6 84.02, 0 11.5 C-2.55 8.69, 0.66 3.71, 11.5 0" stroke="none" stroke-width="0" fill="#e03131"></path><path d="M11.5 0 C18.38 -0.31, 20.63 2.35, 34.5 0 M11.5 0 C19.43 -0.53, 28.98 1.11, 34.5 0 M34.5 0 C40.64 3.38, 47.55 6.99, 46 11.5 M34.5 0 C44.28 2.66, 45.83 6.06, 46 11.5 M46 11.5 C46.94 50.75, 46.37 95.75, 46 206.67 M46 11.5 C44.01 77.51, 45.77 141.64, 46 206.67 M46 206.67 C42.98 215.95, 43.97 218.81, 34.5 218.17 M46 206.67 C45.37 217.26, 45.41 213.97, 34.5 218.17 M34.5 218.17 C27.5 215.25, 25.78 214.3, 11.5 218.17 M34.5 218.17 C25.34 217.29, 17.99 218.41, 11.5 218.17 M11.5 218.17 C5.39 221.77, 1.82 211.97, 0 206.67 M11.5 218.17 C7.46 216.85, 3.37 212.17, 0 206.67 M0 206.67 C-4.74 130.68, -1.81 52.16, 0 11.5 M0 206.67 C-0.93 160.13, -4.36 118.42, 0 11.5 M0 11.5 C-2.39 4.83, 0.53 1.91, 11.5 0 M0 11.5 C3.58 8.16, 2.47 1.27, 11.5 0" stroke="#1e1e1e" stroke-width="2" fill="none"></path></g><g stroke-linecap="round" transform="translate(902.5108542473919 334.34149392635754) rotate(0 23 95.16799149999997)"><path d="M11.5 0 C22.88 1.9, 21.94 0.64, 34.5 0 C42.95 0.37, 49.4 0.96, 46 11.5 C46.7 48.55, 45.43 90.82, 46 178.84 C41.65 191.19, 42.25 195.24, 34.5 190.34 C31.79 194.72, 24.09 192, 11.5 190.34 C2.75 188.08, 0.62 191.7, 0 178.84 C1.08 143.12, 2.06 114.69, 0 11.5 C-3.17 7.55, 6.89 -4.56, 11.5 0" stroke="none" stroke-width="0" fill="#e03131"></path><path d="M11.5 0 C15.23 2, 24.26 -3.17, 34.5 0 M11.5 0 C16.02 0.9, 20.2 1.91, 34.5 0 M34.5 0 C43.72 3.16, 47.84 6.15, 46 11.5 M34.5 0 C42 2.23, 42.19 7.82, 46 11.5 M46 11.5 C40.94 57.62, 45.42 102.45, 46 178.84 M46 11.5 C48.37 54.51, 44.88 100.81, 46 178.84 M46 178.84 C47.8 187.15, 41.62 192.88, 34.5 190.34 M46 178.84 C49.24 182.3, 39.55 186.98, 34.5 190.34 M34.5 190.34 C30.02 186.12, 23.49 188.19, 11.5 190.34 M34.5 190.34 C28.5 190.45, 22.03 191.95, 11.5 190.34 M11.5 190.34 C5.65 187.97, 3.15 185.36, 0 178.84 M11.5 190.34 C7.2 188.17, 4.42 188.67, 0 178.84 M0 178.84 C2.46 115.96, -0.38 55.6, 0 11.5 M0 178.84 C-4.56 120.92, -3.98 60.71, 0 11.5 M0 11.5 C-3.3 5.75, 6.95 3.76, 11.5 0 M0 11.5 C-1.36 5.1, 3.25 -2.61, 11.5 0" stroke="#1e1e1e" stroke-width="2" fill="none"></path></g><g stroke-linecap="round" transform="translate(837.043531247392 306.5094859263577) rotate(0 23 109.08399550000001)"><path d="M11.5 0 C16.47 0.68, 28.2 0.11, 34.5 0 C45.56 -2.87, 41.75 -0.48, 46 11.5 C53.24 59.83, 45.86 104.26, 46 206.67 C46.08 219.24, 41.71 221.3, 34.5 218.17 C30.56 220.32, 19.52 216.41, 11.5 218.17 C4.45 223.36, -5.25 208.83, 0 206.67 C0.89 162.47, 0.27 112.28, 0 11.5 C3.06 -0.73, 5.45 4.4, 11.5 0" stroke="none" stroke-width="0" fill="#e03131"></path><path d="M11.5 0 C21.35 -3.48, 20.67 -2.05, 34.5 0 M11.5 0 C16.53 1.53, 23.86 1.42, 34.5 0 M34.5 0 C44.01 2.31, 45.85 5.77, 46 11.5 M34.5 0 C38.35 3.99, 45.01 1.03, 46 11.5 M46 11.5 C44.52 52.54, 41.64 98.6, 46 206.67 M46 11.5 C48.37 73.94, 50.78 135.08, 46 206.67 M46 206.67 C45.46 216.87, 44.99 214.52, 34.5 218.17 M46 206.67 C43.39 210.97, 42.28 216.55, 34.5 218.17 M34.5 218.17 C32.18 215.91, 23.6 216.54, 11.5 218.17 M34.5 218.17 C29.33 220.04, 23.5 217.06, 11.5 218.17 M11.5 218.17 C6.99 217.02, 2.93 212.45, 0 206.67 M11.5 218.17 C8.25 220.33, 3.5 210.99, 0 206.67 M0 206.67 C-2.84 144.42, 2.15 80.2, 0 11.5 M0 206.67 C2.26 165.33, 1.81 123.95, 0 11.5 M0 11.5 C3.11 7.59, 2.65 1.1, 11.5 0 M0 11.5 C-0.58 1.22, 3.45 -0.55, 11.5 0" stroke="#1e1e1e" stroke-width="2" fill="none"></path></g><g stroke-linecap="round" transform="translate(575.1742392473922 356.5094859263577) rotate(0 23 84.08399550000001)"><path d="M11.5 0 C20.09 0.26, 30.5 -2.98, 34.5 0 C37.92 -4.31, 41.84 8.14, 46 11.5 C43.85 58.54, 48.28 101.1, 46 156.67 C45.54 167.47, 42.29 172.17, 34.5 168.17 C24.72 166.1, 17.73 173.55, 11.5 168.17 C-1.42 162.66, -2.73 160.81, 0 156.67 C-1.32 119.98, 4.91 71.31, 0 11.5 C1.62 8.23, -0.39 -3.51, 11.5 0" stroke="none" stroke-width="0" fill="#2f9e44"></path><path d="M11.5 0 C15.73 -1.46, 25.57 -0.04, 34.5 0 M11.5 0 C19.95 1.19, 27.78 0.77, 34.5 0 M34.5 0 C42.02 1.94, 42.68 7.3, 46 11.5 M34.5 0 C41.18 -2.8, 42.41 0.37, 46 11.5 M46 11.5 C45.64 53.71, 47.69 98.97, 46 156.67 M46 11.5 C44.71 46.37, 43.54 81.87, 46 156.67 M46 156.67 C48.82 160.68, 39.89 165.25, 34.5 168.17 M46 156.67 C46.11 162.71, 38.79 171.01, 34.5 168.17 M34.5 168.17 C29.36 166.78, 23.51 169.2, 11.5 168.17 M34.5 168.17 C28.16 167.4, 21.58 168.01, 11.5 168.17 M11.5 168.17 C6.76 166.28, 3.84 166.22, 0 156.67 M11.5 168.17 C7.34 164.82, 1.5 164.36, 0 156.67 M0 156.67 C4.22 116.2, -1.38 65.53, 0 11.5 M0 156.67 C0.09 103.91, 3.29 51.13, 0 11.5 M0 11.5 C-1.18 4.94, 3.33 -2.27, 11.5 0 M0 11.5 C-0.38 3.28, 5.95 3.83, 11.5 0" stroke="#1e1e1e" stroke-width="2" fill="none"></path></g><g stroke-linecap="round" transform="translate(509.7069162473921 356.5094864263576) rotate(0 23 84.08399525000004)"><path d="M11.5 0 C22.18 -2.91, 21.82 -4.35, 34.5 0 C38 4.31, 45.54 6.87, 46 11.5 C42.93 71.07, 42.38 123.97, 46 156.67 C46.12 168.34, 46.53 171.18, 34.5 168.17 C27.54 173.1, 14.09 162.4, 11.5 168.17 C1.11 164.64, -1.22 161.79, 0 156.67 C5.36 95.97, 3.92 48.8, 0 11.5 C-4.22 0.32, 0.84 3.51, 11.5 0" stroke="none" stroke-width="0" fill="#2f9e44"></path><path d="M11.5 0 C14.6 -0.21, 22.91 -1.31, 34.5 0 M11.5 0 C21.26 0.79, 29.11 0.61, 34.5 0 M34.5 0 C38.85 3.47, 45.14 1.4, 46 11.5 M34.5 0 C38.58 -3.47, 45.43 5.52, 46 11.5 M46 11.5 C45.6 50.77, 42.49 79.08, 46 156.67 M46 11.5 C47.03 62.19, 48.72 108.51, 46 156.67 M46 156.67 C43.73 161.41, 42.26 166.76, 34.5 168.17 M46 156.67 C42.63 167.18, 37.7 171.5, 34.5 168.17 M34.5 168.17 C26.99 169.28, 23.38 169.59, 11.5 168.17 M34.5 168.17 C27.11 167.32, 18.03 166.95, 11.5 168.17 M11.5 168.17 C7.67 170.05, 3.05 161.43, 0 156.67 M11.5 168.17 C5.33 168.2, 0.08 161.1, 0 156.67 M0 156.67 C-5.01 99.94, 1.22 47.9, 0 11.5 M0 156.67 C3.95 111.38, 1.8 62.87, 0 11.5 M0 11.5 C-0.51 1.56, 3.5 -0.48, 11.5 0 M0 11.5 C2.11 7.67, 5.64 -2.45, 11.5 0" stroke="#1e1e1e" stroke-width="2" fill="none"></path></g><g stroke-linecap="round" transform="translate(444.2395932473921 356.5094864263576) rotate(0 23 84.08399525000004)"><path d="M11.5 0 C14.3 -3.98, 21.44 4.64, 34.5 0 C41.7 3.03, 50.29 -0.51, 46 11.5 C45.6 70.33, 46.18 126.89, 46 156.67 C50.37 167.34, 43.82 167.08, 34.5 168.17 C23.27 163.26, 19.83 165.24, 11.5 168.17 C2.62 165.62, 4.86 161.16, 0 156.67 C-0.6 107.9, -6.44 46.81, 0 11.5 C-3 7.34, 2.32 -4.35, 11.5 0" stroke="none" stroke-width="0" fill="#2f9e44"></path><path d="M11.5 0 C18.7 -1.47, 26.57 1.6, 34.5 0 M11.5 0 C20.14 0.7, 27.27 1.47, 34.5 0 M34.5 0 C41.31 -2.44, 42.88 0.82, 46 11.5 M34.5 0 C41.6 1.68, 43.39 2.2, 46 11.5 M46 11.5 C43.98 53.71, 48.08 103.76, 46 156.67 M46 11.5 C47.02 55.56, 44.47 101.81, 46 156.67 M46 156.67 C46.1 162.93, 39.23 170.64, 34.5 168.17 M46 156.67 C41.54 167.67, 40.09 167.62, 34.5 168.17 M34.5 168.17 C28.88 169.87, 25.66 170.13, 11.5 168.17 M34.5 168.17 C30.42 167.09, 25.34 168.98, 11.5 168.17 M11.5 168.17 C6.88 165.26, 1.3 164.36, 0 156.67 M11.5 168.17 C3.91 164.93, 3.05 166.84, 0 156.67 M0 156.67 C5.29 98.64, 3.48 42.09, 0 11.5 M0 156.67 C-2.85 106.73, -2.51 54.54, 0 11.5 M0 11.5 C-0.33 3.35, 5.67 3.33, 11.5 0 M0 11.5 C1.81 1.38, 4.6 0.64, 11.5 0" stroke="#1e1e1e" stroke-width="2" fill="none"></path></g><g stroke-linecap="round" transform="translate(967.9781772473917 356.5094864263576) rotate(0 23 84.08399525000004)"><path d="M11.5 0 C13.06 4.81, 22.48 3.53, 34.5 0 C46.46 -4.35, 50.68 3.91, 46 11.5 C45.78 71.76, 50.03 127.02, 46 156.67 C47.65 163.25, 39.91 168.79, 34.5 168.17 C22.74 164.01, 15.22 164.99, 11.5 168.17 C8.69 165, 3.71 167.39, 0 156.67 C-5.39 121.43, -4.17 96.73, 0 11.5 C-1.51 -0.52, 2.99 -5.33, 11.5 0" stroke="none" stroke-width="0" fill="#2f9e44"></path><path d="M11.5 0 C21.54 1.73, 27.98 2.02, 34.5 0 M11.5 0 C18.07 1.51, 27.53 -1.44, 34.5 0 M34.5 0 C39.04 -3.02, 45.5 5.3, 46 11.5 M34.5 0 C39.55 -1.64, 46.53 4.56, 46 11.5 M46 11.5 C45.82 71.27, 44.84 126.89, 46 156.67 M46 11.5 C46.91 62.81, 48.1 116.33, 46 156.67 M46 156.67 C43.07 166.81, 38.29 171.07, 34.5 168.17 M46 156.67 C43.92 163.79, 40.81 166.27, 34.5 168.17 M34.5 168.17 C30.48 170.16, 16.9 171.5, 11.5 168.17 M34.5 168.17 C30.18 168.89, 23.54 166.5, 11.5 168.17 M11.5 168.17 C5.13 168.19, 0.07 161.52, 0 156.67 M11.5 168.17 C6.89 170.67, 3.83 160.4, 0 156.67 M0 156.67 C-1.03 122.68, -0.12 98.4, 0 11.5 M0 156.67 C0.61 98.33, 0.7 42.03, 0 11.5 M0 11.5 C1.84 7.17, 5.4 -2.13, 11.5 0 M0 11.5 C0.77 4.48, 4.13 2.79, 11.5 0" stroke="#1e1e1e" stroke-width="2" fill="none"></path></g><g stroke-linecap="round" transform="translate(1033.4455002473915 356.5094864263576) rotate(0 23 84.08399525000004)"><path d="M11.5 0 C16.17 2.54, 26.05 -4.84, 34.5 0 C46.85 0.08, 50.9 3.37, 46 11.5 C50.45 66.18, 47.74 113.76, 46 156.67 C43.74 164.96, 47.36 162.91, 34.5 168.17 C28.64 165.21, 30.08 164.59, 11.5 168.17 C7.55 171.23, -4.56 165.95, 0 156.67 C0.06 105.22, 1.55 42.4, 0 11.5 C-0.84 -1.49, 3.49 2.36, 11.5 0" stroke="none" stroke-width="0" fill="#2f9e44"></path><path d="M11.5 0 C20.68 1.66, 25.86 -0.32, 34.5 0 M11.5 0 C19.08 -1.62, 25.97 -1.91, 34.5 0 M34.5 0 C41.67 1.46, 43.73 2.41, 46 11.5 M34.5 0 C42.7 0.73, 50.57 0.98, 46 11.5 M46 11.5 C47.82 43.55, 49.71 79.5, 46 156.67 M46 11.5 C44.4 41.09, 42.88 73.32, 46 156.67 M46 156.67 C42.12 167.23, 40.36 167.69, 34.5 168.17 M46 156.67 C44.64 162.44, 43.6 168.86, 34.5 168.17 M34.5 168.17 C24.34 171.53, 17.76 171.31, 11.5 168.17 M34.5 168.17 C30.21 166.93, 23.52 168.4, 11.5 168.17 M11.5 168.17 C3.9 165.35, 2.66 166.51, 0 156.67 M11.5 168.17 C7.66 164.23, -4.07 167.55, 0 156.67 M0 156.67 C1.19 124.91, 3.04 85.74, 0 11.5 M0 156.67 C0.2 108.87, 1.29 63.22, 0 11.5 M0 11.5 C1.57 1.7, 4.5 0.56, 11.5 0 M0 11.5 C0.3 6.62, 1.47 -3.49, 11.5 0" stroke="#1e1e1e" stroke-width="2" fill="none"></path></g><g stroke-linecap="round" transform="translate(1098.9128236272459 358.2938302325874) rotate(0 23 84.08399525000004)"><path d="M11.5 0 C24.46 -4.7, 33.52 -0.27, 34.5 0 C47.07 -0.46, 49.13 3.95, 46 11.5 C50.82 64.35, 46.91 119.98, 46 156.67 C51.19 159.08, 36.66 165.44, 34.5 168.17 C33.9 164.7, 27.31 170.93, 11.5 168.17 C-0.73 169.79, 4.4 160.12, 0 156.67 C0.66 117.88, 1.34 82.46, 0 11.5 C-0.34 6.2, 7.72 1.73, 11.5 0" stroke="none" stroke-width="0" fill="#2f9e44"></path><path d="M11.5 0 C21.6 -0.36, 29.02 -3.53, 34.5 0 M11.5 0 C18.83 -1.23, 29.04 1.01, 34.5 0 M34.5 0 C39.89 -1.42, 46.46 4.46, 46 11.5 M34.5 0 C46.74 -2.85, 42.53 5.69, 46 11.5 M46 11.5 C49.01 64.4, 42.81 109.38, 46 156.67 M46 11.5 C44.6 45.68, 44.13 78.84, 46 156.67 M46 156.67 C44.19 163.86, 40.98 166.52, 34.5 168.17 M46 156.67 C47.43 165.03, 43.96 172.31, 34.5 168.17 M34.5 168.17 C25.41 171.46, 16.73 172.37, 11.5 168.17 M34.5 168.17 C27.17 167.85, 18.57 166.43, 11.5 168.17 M11.5 168.17 C6.49 170.35, 3.33 160.91, 0 156.67 M11.5 168.17 C-0.24 171.39, -2.75 165.48, 0 156.67 M0 156.67 C2.37 123.91, -0.28 93.01, 0 11.5 M0 156.67 C1.16 123.02, 1.02 84.98, 0 11.5 M0 11.5 C0.67 4.39, 4.09 2.43, 11.5 0 M0 11.5 C-2.36 0.35, 0.29 -3.42, 11.5 0" stroke="#1e1e1e" stroke-width="2" fill="none"></path></g><g stroke-linecap="round" transform="translate(1164.380145710677 358.29383086611597) rotate(0 23 84.08399525000004)"><path d="M11.5 0 C18.84 0.15, 27.17 -2.31, 34.5 0 C46.64 -2.86, 43.48 4.06, 46 11.5 C45.8 44.71, 44.63 69.08, 46 156.67 C40.7 169.26, 43.55 168.85, 34.5 168.17 C33.25 167.44, 20.93 170.12, 11.5 168.17 C-0.06 163.09, 3.22 161.9, 0 156.67 C5.16 122.23, -5.21 86.34, 0 11.5 C-4.46 3.76, 2.47 -1.34, 11.5 0" stroke="none" stroke-width="0" fill="#2f9e44"></path><path d="M11.5 0 C16.4 -1, 29.13 1.56, 34.5 0 M11.5 0 C22.05 -1.55, 27.18 -0.71, 34.5 0 M34.5 0 C40.93 1.22, 48.28 1.14, 46 11.5 M34.5 0 C41.26 3.13, 43.03 6.58, 46 11.5 M46 11.5 C49.79 61.54, 47.35 115.38, 46 156.67 M46 11.5 C43.39 58.8, 46.91 104.9, 46 156.67 M46 156.67 C43.01 160.5, 42.31 170.76, 34.5 168.17 M46 156.67 C50.15 163.9, 45.03 167.3, 34.5 168.17 M34.5 168.17 C32.92 169.42, 24.71 169.65, 11.5 168.17 M34.5 168.17 C27.71 168.25, 21.74 168.83, 11.5 168.17 M11.5 168.17 C0.85 166.42, 3.72 166.54, 0 156.67 M11.5 168.17 C1.42 164.98, 2.33 164.62, 0 156.67 M0 156.67 C2.97 114.12, -2.2 65.38, 0 11.5 M0 156.67 C2.47 99.64, -0.81 41.21, 0 11.5 M0 11.5 C0.4 3.3, 4.05 2.37, 11.5 0 M0 11.5 C0.33 4.54, 2.17 -2.33, 11.5 0" stroke="#1e1e1e" stroke-width="2" fill="none"></path></g><g stroke-linecap="round" transform="translate(1229.8474687106768 358.29383086611597) rotate(0 23 84.08399525000004)"><path d="M11.5 0 C15.49 -2.57, 27.83 -2.85, 34.5 0 C39.64 0.23, 40.55 7.68, 46 11.5 C39.67 43.82, 38.53 83.64, 46 156.67 C47.38 165.01, 41.64 171.91, 34.5 168.17 C29.56 170.72, 21.13 163.07, 11.5 168.17 C7.05 165.74, -2.77 163.92, 0 156.67 C-9.04 127.16, -7.99 92.69, 0 11.5 C-1.36 2.5, 8.17 5.49, 11.5 0" stroke="none" stroke-width="0" fill="#2f9e44"></path><path d="M11.5 0 C19.32 1.35, 24.65 -3.12, 34.5 0 M11.5 0 C16.37 -0.43, 23.72 0.99, 34.5 0 M34.5 0 C44.45 -2.69, 45.21 6.56, 46 11.5 M34.5 0 C39.2 2.75, 48.28 7.23, 46 11.5 M46 11.5 C46.4 58.58, 47.87 99.68, 46 156.67 M46 11.5 C45.26 43.21, 41.98 70.18, 46 156.67 M46 156.67 C46.15 166.93, 45.77 167.79, 34.5 168.17 M46 156.67 C48.86 163.46, 39.27 169.09, 34.5 168.17 M34.5 168.17 C28.72 169.8, 19.88 171.29, 11.5 168.17 M34.5 168.17 C25.66 168.35, 15.17 167.22, 11.5 168.17 M11.5 168.17 C7.55 170.38, -2.1 161.56, 0 156.67 M11.5 168.17 C6.16 168.46, 0.59 165.72, 0 156.67 M0 156.67 C-4.12 123.97, 0.97 90.61, 0 11.5 M0 156.67 C-3.89 120.47, -1.74 86.14, 0 11.5 M0 11.5 C0.22 6.2, 4.12 0.62, 11.5 0 M0 11.5 C-1.67 1.5, 7.64 0.92, 11.5 0" stroke="#1e1e1e" stroke-width="2" fill="none"></path></g><g stroke-linecap="round" transform="translate(1295.3147920905312 360.078174672346) rotate(0 23 84.08399525000004)"><path d="M11.5 0 C22.82 -2.57, 22.67 0.53, 34.5 0 C36.72 3.84, 42.17 0.84, 46 11.5 C37.69 69.78, 44.36 118.88, 46 156.67 C45.47 168.08, 36.9 173.6, 34.5 168.17 C23.75 163.38, 24.01 166.03, 11.5 168.17 C1.07 167.75, -4.47 169.19, 0 156.67 C-0.46 108.01, 2.64 58.17, 0 11.5 C4.34 9.32, 0.52 3.07, 11.5 0" stroke="none" stroke-width="0" fill="#2f9e44"></path><path d="M11.5 0 C20.6 -3.41, 22.89 3.74, 34.5 0 M11.5 0 C15.89 0.8, 22.65 -1.16, 34.5 0 M34.5 0 C41.38 2.73, 43.42 6.22, 46 11.5 M34.5 0 C44.45 3.39, 46.36 5.73, 46 11.5 M46 11.5 C46.1 51.28, 41.77 90, 46 156.67 M46 11.5 C47.1 62.61, 48.67 118.85, 46 156.67 M46 156.67 C49.61 163.96, 44.65 167.41, 34.5 168.17 M46 156.67 C43.1 165.26, 42.15 172.62, 34.5 168.17 M34.5 168.17 C26.04 171.32, 22.77 167.59, 11.5 168.17 M34.5 168.17 C26.48 167.35, 23.3 169.33, 11.5 168.17 M11.5 168.17 C1.74 165.39, 2.02 164.59, 0 156.67 M11.5 168.17 C4.42 169.55, -3.58 168.75, 0 156.67 M0 156.67 C4.73 101.14, -1.35 51.41, 0 11.5 M0 156.67 C3.03 111.64, 2.94 68.32, 0 11.5 M0 11.5 C0.29 4.45, 2.39 -2.03, 11.5 0 M0 11.5 C3.81 4.76, 1.9 -1.2, 11.5 0" stroke="#1e1e1e" stroke-width="2" fill="none"></path></g><g stroke-linecap="round" transform="translate(247.8376236751514 357.4016586036414) rotate(0 23 84.08399525000004)"><path d="M11.5 0 C15.12 -2.98, 26.12 4.5, 34.5 0 C40.78 2.27, 47.29 3.91, 46 11.5 C52.73 66.13, 51.91 125.43, 46 156.67 C43.68 159.62, 40.78 168.22, 34.5 168.17 C30.45 165.9, 15.42 167.06, 11.5 168.17 C2.3 172.58, 2.78 163.4, 0 156.67 C-2.65 104.89, 0.33 61.11, 0 11.5 C-3.09 2.38, 0.94 2.29, 11.5 0" stroke="none" stroke-width="0" fill="#2f9e44"></path><path d="M11.5 0 C23.24 -2.95, 30.53 -2.97, 34.5 0 M11.5 0 C15.19 -1, 22.13 -0.23, 34.5 0 M34.5 0 C39.15 -1.34, 48.73 1.2, 46 11.5 M34.5 0 C43.76 0.17, 47.77 3.62, 46 11.5 M46 11.5 C43.48 58.48, 40.83 112.57, 46 156.67 M46 11.5 C44.52 57.27, 43.45 97.85, 46 156.67 M46 156.67 C45.3 161.13, 44.97 166.79, 34.5 168.17 M46 156.67 C45.26 168.27, 43.38 171.43, 34.5 168.17 M34.5 168.17 C24.23 167.83, 19.48 170.49, 11.5 168.17 M34.5 168.17 C29.34 168.3, 25.29 168.42, 11.5 168.17 M11.5 168.17 C0.23 167.34, -2.98 163.85, 0 156.67 M11.5 168.17 C1.35 166.08, -1.65 168.36, 0 156.67 M0 156.67 C-2.55 107.83, 3.41 54.9, 0 11.5 M0 156.67 C-0.45 110, -3.93 68.16, 0 11.5 M0 11.5 C2.73 0.69, 3.51 3.1, 11.5 0 M0 11.5 C0.38 3.91, -0.6 3.09, 11.5 0" stroke="#1e1e1e" stroke-width="2" fill="none"></path></g><g stroke-linecap="round" transform="translate(313.30494667515126 357.4016586036414) rotate(0 23 84.08399525000004)"><path d="M11.5 0 C21.67 4.76, 23.32 2.62, 34.5 0 C43.46 0.08, 50.79 8.23, 46 11.5 C51.29 59.69, 46.25 99.18, 46 156.67 C44.62 164.39, 45.96 171.64, 34.5 168.17 C24.98 166.66, 18.27 172.31, 11.5 168.17 C6.61 167.24, 1.42 168.3, 0 156.67 C3.05 119.09, -3.26 82.2, 0 11.5 C-2.9 6.12, 0.8 2.84, 11.5 0" stroke="none" stroke-width="0" fill="#2f9e44"></path><path d="M11.5 0 C22.02 -2.55, 23.31 -2.49, 34.5 0 M11.5 0 C17.97 -0.1, 22.53 -0.41, 34.5 0 M34.5 0 C44.9 -2.63, 47.39 3.98, 46 11.5 M34.5 0 C43.94 -0.22, 48.01 1.71, 46 11.5 M46 11.5 C41.32 55.04, 45.32 93.9, 46 156.67 M46 11.5 C45.09 57.6, 45.74 106.08, 46 156.67 M46 156.67 C48.8 162.96, 41.53 171.59, 34.5 168.17 M46 156.67 C47.21 167.59, 44.81 171.74, 34.5 168.17 M34.5 168.17 C28.47 170.32, 16.41 168.09, 11.5 168.17 M34.5 168.17 C27.66 168.23, 17.13 167.74, 11.5 168.17 M11.5 168.17 C0.85 167.69, -2.16 162.52, 0 156.67 M11.5 168.17 C2.18 172.19, 1.81 164.39, 0 156.67 M0 156.67 C5.28 120.31, 2.25 93.08, 0 11.5 M0 156.67 C-4.16 119.79, -0.81 77.95, 0 11.5 M0 11.5 C-0.33 6.93, 4.17 0.07, 11.5 0 M0 11.5 C-4.44 6.92, 1.09 -0.33, 11.5 0" stroke="#1e1e1e" stroke-width="2" fill="none"></path></g><g stroke-linecap="round" transform="translate(378.77227005500566 359.18600240987143) rotate(0 23 84.08399525000004)"><path d="M11.5 0 C15.76 1.76, 24.08 -0.43, 34.5 0 C46.96 4.4, 47.02 7.37, 46 11.5 C45.65 46.88, 46.59 91.75, 46 156.67 C49.8 167.81, 43.26 172.58, 34.5 168.17 C27.05 172.44, 25.45 167.09, 11.5 168.17 C5.26 172.14, -2.72 164.56, 0 156.67 C-5.42 123.43, -5.23 95.38, 0 11.5 C-3.03 6.68, 0.45 -4.31, 11.5 0" stroke="none" stroke-width="0" fill="#2f9e44"></path><path d="M11.5 0 C13.83 -2.49, 20.92 -2.73, 34.5 0 M11.5 0 C15.6 -0.59, 24.08 -1.23, 34.5 0 M34.5 0 C43.55 0.15, 47.54 3.64, 46 11.5 M34.5 0 C44.18 -2.12, 45.59 2.48, 46 11.5 M46 11.5 C43.39 42.36, 44.47 77.6, 46 156.67 M46 11.5 C44.19 65.04, 45.95 121.11, 46 156.67 M46 156.67 C45.36 167.76, 43.22 171, 34.5 168.17 M46 156.67 C48.64 167.9, 43.29 165.81, 34.5 168.17 M34.5 168.17 C24.69 168.4, 22.76 168.26, 11.5 168.17 M34.5 168.17 C25.85 167.77, 19.32 167.94, 11.5 168.17 M11.5 168.17 C1.68 166.35, -1.44 167.84, 0 156.67 M11.5 168.17 C5.65 168.22, -3.3 161.44, 0 156.67 M0 156.67 C-2.08 114.23, -3.87 69.43, 0 11.5 M0 156.67 C4.23 122.96, 2.7 93.94, 0 11.5 M0 11.5 C0.33 3.9, -0.03 2.68, 11.5 0 M0 11.5 C-2.75 3.5, 3.24 -1.57, 11.5 0" stroke="#1e1e1e" stroke-width="2" fill="none"></path></g><g stroke-linecap="round" transform="translate(1360.782114460521 360.0781744019539) rotate(0 23 84.08399525000004)"><path d="M11.5 0 C12.89 0.38, 22.8 -5.65, 34.5 0 C37.98 0.09, 51.51 5, 46 11.5 C50.81 43.55, 48.21 86.18, 46 156.67 C42.35 160.86, 40.37 171.5, 34.5 168.17 C32 164.49, 25.94 174.03, 11.5 168.17 C2.38 165.52, 4.6 166.67, 0 156.67 C4.08 123.88, 0.55 87.74, 0 11.5 C-0.23 9.06, 0.93 -3.95, 11.5 0" stroke="none" stroke-width="0" fill="#2f9e44"></path><path d="M11.5 0 C22.62 3.42, 27.8 2.32, 34.5 0 M11.5 0 C18.84 -0.19, 25.64 -1.32, 34.5 0 M34.5 0 C38.73 3.31, 42.3 6.26, 46 11.5 M34.5 0 C37.71 -2.66, 42.52 5.42, 46 11.5 M46 11.5 C48.62 69.92, 51.78 122.47, 46 156.67 M46 11.5 C45.7 44.2, 45.69 74.14, 46 156.67 M46 156.67 C42.46 162.68, 44.28 168.08, 34.5 168.17 M46 156.67 C45.19 165.69, 41.63 168.33, 34.5 168.17 M34.5 168.17 C28.88 164.41, 19.77 167.36, 11.5 168.17 M34.5 168.17 C30.14 166.85, 24.58 168.77, 11.5 168.17 M11.5 168.17 C4.72 169.11, -0.23 162.08, 0 156.67 M11.5 168.17 C2.64 165.73, 0.86 163.09, 0 156.67 M0 156.67 C3.64 115.43, -2.3 75.28, 0 11.5 M0 156.67 C3.01 100.53, 3.4 44.15, 0 11.5 M0 11.5 C2.13 4.63, 7.31 1.48, 11.5 0 M0 11.5 C0.78 1.31, 7.15 -3.66, 11.5 0" stroke="#1e1e1e" stroke-width="2" fill="none"></path></g><g stroke-linecap="round" transform="translate(1426.2494374605208 360.0781744019539) rotate(0 23 84.08399525000004)"><path d="M11.5 0 C17.57 -5.37, 23.72 0, 34.5 0 C47.68 1.17, 43.52 7.41, 46 11.5 C47.22 64.94, 43.96 114.06, 46 156.67 C44.2 167.66, 37.47 164.42, 34.5 168.17 C27.77 173.22, 16.82 165.06, 11.5 168.17 C8.44 170.5, -2.77 159.08, 0 156.67 C-3.45 114.87, -0.42 70.72, 0 11.5 C-2.9 -0.12, 4.38 0.43, 11.5 0" stroke="none" stroke-width="0" fill="#2f9e44"></path><path d="M11.5 0 C18.03 1.72, 24.08 2.84, 34.5 0 M11.5 0 C15.98 -1.51, 20.52 1.77, 34.5 0 M34.5 0 C38.46 2.43, 42.13 1.52, 46 11.5 M34.5 0 C38.69 1.58, 49.56 7.75, 46 11.5 M46 11.5 C49.42 68.11, 42.95 123.29, 46 156.67 M46 11.5 C42.8 59.98, 42.34 110.81, 46 156.67 M46 156.67 C48.12 164.24, 41.46 169.34, 34.5 168.17 M46 156.67 C45.46 164.5, 39.95 165.91, 34.5 168.17 M34.5 168.17 C25.03 167.06, 18.06 164.94, 11.5 168.17 M34.5 168.17 C28.78 168.87, 24.47 168.41, 11.5 168.17 M11.5 168.17 C3.6 165.91, -1.04 162.21, 0 156.67 M11.5 168.17 C4.7 166.92, -0.59 163.51, 0 156.67 M0 156.67 C-5.09 105.12, 1.4 46.92, 0 11.5 M0 156.67 C-0.07 110.13, -0.44 61.64, 0 11.5 M0 11.5 C3.47 5.31, 4.51 -2.19, 11.5 0 M0 11.5 C3.31 0.17, 3.47 -0.01, 11.5 0" stroke="#1e1e1e" stroke-width="2" fill="none"></path></g><g stroke-linecap="round" transform="translate(1491.7167608403752 361.86251820818393) rotate(0 23 84.08399525000004)"><path d="M11.5 0 C14.52 0.7, 31.42 1.78, 34.5 0 C39.69 3.58, 49.65 6.05, 46 11.5 C42.07 38.41, 43.92 75.59, 46 156.67 C41.3 160.58, 45.12 170.64, 34.5 168.17 C27.8 166.15, 28.6 171.14, 11.5 168.17 C1.06 162.91, 0.79 164.6, 0 156.67 C2.14 109.09, -0.53 47.12, 0 11.5 C0.55 4.27, 6.66 1.4, 11.5 0" stroke="none" stroke-width="0" fill="#2f9e44"></path><path d="M11.5 0 C21.31 2.97, 26.3 -0.59, 34.5 0 M11.5 0 C16.11 2.03, 22.31 1.59, 34.5 0 M34.5 0 C38.3 -2.32, 42.97 5.21, 46 11.5 M34.5 0 C45.73 3.92, 49.69 4, 46 11.5 M46 11.5 C45.25 69.64, 50.2 122.41, 46 156.67 M46 11.5 C42.32 58.46, 45.15 107.03, 46 156.67 M46 156.67 C45.3 165.51, 41.7 168.31, 34.5 168.17 M46 156.67 C43.78 162.08, 41.01 168.37, 34.5 168.17 M34.5 168.17 C25.9 165.28, 22 168.8, 11.5 168.17 M34.5 168.17 C29.18 168.85, 22.86 167.26, 11.5 168.17 M11.5 168.17 C2.8 166.04, 0.75 163.25, 0 156.67 M11.5 168.17 C3.24 167.34, 3.16 167.92, 0 156.67 M0 156.67 C5.71 108.78, 3.2 68.39, 0 11.5 M0 156.67 C-1.01 108.39, -0.33 60.05, 0 11.5 M0 11.5 C0.68 1.64, 6.72 -3.19, 11.5 0 M0 11.5 C-0.37 3.83, 6.43 -4.38, 11.5 0" stroke="#1e1e1e" stroke-width="2" fill="none"></path></g><g stroke-linecap="round" transform="translate(51.43565333416558 354.7251424894539) rotate(0 23 84.08399525000004)"><path d="M11.5 0 C19.02 0.98, 29.67 -1.07, 34.5 0 C41.81 -4.62, 43.78 7.46, 46 11.5 C42.81 48.82, 48.92 89.27, 46 156.67 C48.06 159.1, 41.3 164.14, 34.5 168.17 C27.95 167.87, 24.18 174.1, 11.5 168.17 C2.01 171, 4.52 161.4, 0 156.67 C0.31 127.81, 4.19 96.6, 0 11.5 C3.84 4.8, 9.29 2.62, 11.5 0" stroke="none" stroke-width="0" fill="#2f9e44"></path><path d="M11.5 0 C22.27 1.05, 28.77 -1.56, 34.5 0 M11.5 0 C20.94 -0.6, 28.92 0.12, 34.5 0 M34.5 0 C40.81 0, 46.19 0.37, 46 11.5 M34.5 0 C38.46 -2.99, 48.5 1.29, 46 11.5 M46 11.5 C44.78 49.23, 46.22 81.68, 46 156.67 M46 11.5 C46.04 52.63, 44.64 93.53, 46 156.67 M46 156.67 C49.06 161.43, 38.83 170.83, 34.5 168.17 M46 156.67 C43.33 160.22, 42.16 165.59, 34.5 168.17 M34.5 168.17 C25.83 171.68, 17.95 171.33, 11.5 168.17 M34.5 168.17 C27.76 167.84, 23.05 168, 11.5 168.17 M11.5 168.17 C7.17 167.18, 1.26 167.5, 0 156.67 M11.5 168.17 C0.22 171.55, 0.28 164.09, 0 156.67 M0 156.67 C1.55 103.4, -1.71 52.59, 0 11.5 M0 156.67 C-0.88 122.76, -2.43 85.44, 0 11.5 M0 11.5 C-1.94 0.2, 3.88 -0.99, 11.5 0 M0 11.5 C1.38 4.86, -0.76 3.94, 11.5 0" stroke="#1e1e1e" stroke-width="2" fill="none"></path></g><g stroke-linecap="round" transform="translate(116.90297633416543 354.7251424894539) rotate(0 23 84.08399525000004)"><path d="M11.5 0 C17.4 -1.39, 23.24 -4.7, 34.5 0 C39.95 3.63, 43.58 0.48, 46 11.5 C50.81 61.6, 47.51 99.98, 46 156.67 C45.14 160.3, 39.2 167.78, 34.5 168.17 C26.49 173.39, 14.58 170.89, 11.5 168.17 C8.35 165.23, -5.22 163.54, 0 156.67 C3.8 125.31, 4.03 94.95, 0 11.5 C5.46 6.45, 2.92 -0.42, 11.5 0" stroke="none" stroke-width="0" fill="#2f9e44"></path><path d="M11.5 0 C20.54 -1.49, 30.14 -3.73, 34.5 0 M11.5 0 C20.38 0.48, 27.51 0.07, 34.5 0 M34.5 0 C42.36 -3.46, 42.77 1.24, 46 11.5 M34.5 0 C44.67 -2.55, 43.71 1.51, 46 11.5 M46 11.5 C47.87 62.96, 45.33 118.83, 46 156.67 M46 11.5 C45.68 49.09, 48.17 83.05, 46 156.67 M46 156.67 C42.66 167, 39.84 164.59, 34.5 168.17 M46 156.67 C46 161.76, 44.16 169.08, 34.5 168.17 M34.5 168.17 C27.81 171.95, 19.01 168.08, 11.5 168.17 M34.5 168.17 C27.87 168.43, 26.49 167.69, 11.5 168.17 M11.5 168.17 C5.1 171.34, -3.14 167.27, 0 156.67 M11.5 168.17 C4.12 167.92, 2.48 163.8, 0 156.67 M0 156.67 C-2.93 100.84, -3.02 48.7, 0 11.5 M0 156.67 C-1.47 110.21, -0.73 61.29, 0 11.5 M0 11.5 C0.05 2.84, 5.03 0.89, 11.5 0 M0 11.5 C-4.59 7.77, 8.35 -2.31, 11.5 0" stroke="#1e1e1e" stroke-width="2" fill="none"></path></g><g stroke-linecap="round" transform="translate(182.37029971401984 356.5094862956839) rotate(0 23 84.08399525000004)"><path d="M11.5 0 C18.35 -4.47, 23.68 3.78, 34.5 0 C39.74 -3.35, 47.27 3.08, 46 11.5 C51.95 49.95, 49.02 94.84, 46 156.67 C43.03 163.94, 47.41 167.29, 34.5 168.17 C26.15 171.61, 25.96 165.84, 11.5 168.17 C-1.38 167.37, -4.71 164.07, 0 156.67 C1.22 111.05, 2.83 66.13, 0 11.5 C-0.91 3.41, -0.02 -4.99, 11.5 0" stroke="none" stroke-width="0" fill="#2f9e44"></path><path d="M11.5 0 C21.81 -3.43, 29.26 2.15, 34.5 0 M11.5 0 C17.36 -0.09, 24.67 -1.83, 34.5 0 M34.5 0 C38.94 -2.6, 48.18 1.62, 46 11.5 M34.5 0 C39.88 -2.32, 49.29 4.11, 46 11.5 M46 11.5 C46.38 59.6, 45.29 109.67, 46 156.67 M46 11.5 C46.14 58.36, 42.94 109.46, 46 156.67 M46 156.67 C43.67 160.76, 42.16 165.93, 34.5 168.17 M46 156.67 C48 165.24, 40.25 167.28, 34.5 168.17 M34.5 168.17 C21.87 168.04, 12.86 164.72, 11.5 168.17 M34.5 168.17 C29.17 167.73, 21.13 169.81, 11.5 168.17 M11.5 168.17 C0.69 171.11, 0.25 164.12, 0 156.67 M11.5 168.17 C6.31 167.63, 3.46 165.72, 0 156.67 M0 156.67 C-0.65 121.02, 2.38 83.07, 0 11.5 M0 156.67 C1.51 97.79, 2.51 42.05, 0 11.5 M0 11.5 C1.2 4.73, -0.16 3.42, 11.5 0 M0 11.5 C4.52 1.52, 2.12 -1.35, 11.5 0" stroke="#1e1e1e" stroke-width="2" fill="none"></path></g><g stroke-linecap="round"><g stroke-opacity="0.5" fill-opacity="0.5" transform="translate(29.457594099387507 334.7733076621846) rotate(0 764.6035883777276 0.5026134408091139)"><path d="M-1.78 -0.5 C253.44 -0.16, 1275.93 1.79, 1530.99 1.47" stroke="#1e1e1e" stroke-width="1.5" fill="none" stroke-dasharray="1.5 7"></path></g></g><mask></mask><g stroke-linecap="round"><g stroke-opacity="0.5" fill-opacity="0.5" transform="translate(11.556658649072006 536.9192411170202) rotate(0 776.1772625160673 -0.8176885469989656)"><path d="M-1.56 -0.67 C256.44 -1.43, 1290.1 -1.26, 1548.29 -1.84 M2.79 -3.5 C261.69 -2.57, 1295.5 1.65, 1553.91 1.87" stroke="#1e1e1e" stroke-width="1" fill="none"></path></g></g><mask></mask><g stroke-linecap="round"><g stroke-opacity="0.5" fill-opacity="0.5" transform="translate(1556.9759921117825 523.9325988072628) rotate(0 8.852456423109288 10.481801353953756)"><path d="M-1.44 0.14 C1.13 2.39, 13.53 9, 13.87 12.85 C14.22 16.7, 2.79 22.08, 0.61 23.22 M2.97 -2.26 C6.55 0.35, 19.85 11.78, 19.12 15.31 C18.39 18.83, 1.57 17.86, -1.41 18.9" stroke="#1e1e1e" stroke-width="1" fill="none"></path></g></g><mask></mask><g stroke-linecap="round"><g stroke-opacity="0.5" fill-opacity="0.5" transform="translate(29.5494172695079 22.376969867536445) rotate(0 -0.7766662037372569 262.00567939877504)"><path d="M-1.95 -1.16 C-2.07 86.75, -1.62 437.77, -0.97 525.47 M2.19 -4.26 C1.62 84.17, -3.56 439.72, -3.74 528.27" stroke="#1e1e1e" stroke-width="1" fill="none"></path></g></g><mask></mask><g stroke-linecap="round"><g stroke-opacity="0.5" fill-opacity="0.5" transform="translate(16.11192796886337 11.21661384526783) rotate(270 9.473802746386825 9.23113869745282)"><path d="M-0.97 -1.53 C2.67 0.83, 19.54 9.7, 19.92 13.01 C20.29 16.32, 4.12 16.76, 1.29 18.33 M3.69 3.81 C7.31 6.58, 19.4 12.87, 18.71 15.57 C18.02 18.26, 1.93 19.73, -0.44 19.99" stroke="#1e1e1e" stroke-width="1" fill="none"></path></g></g><mask></mask></svg>