<svg version="1.1" id="Layer_1" xmlns:x="ns_extend;" xmlns:i="ns_ai;" xmlns:graph="ns_graphs;" xmlns="http://www.w3.org/2000/svg" xmlns:xlink="http://www.w3.org/1999/xlink" x="0px" y="0px" viewBox="0 0 68.2 48.5" style="enable-background:new 0 0 68.2 48.5;" xml:space="preserve">
 <style type="text/css">
  .st0{fill:#C3D100;}
	.st1{fill:#88BC1F;}
	.st2{fill:#019544;}
	.st3{fill:#7FAD00;}
	.st4{fill:#C4D600;}
	.st5{fill:#00AE53;}
	.st6{fill:#009644;}
	.st7{fill:#84BD00;}
 </style>
 <metadata>
  <sfw xmlns="ns_sfw;">
   <slices>
   </slices>
   <sliceSourceBounds bottomLeftOrigin="true" height="48.5" width="68.2" x="-59.9" y="7.8">
   </sliceSourceBounds>
  </sfw>
 </metadata>
 <g>
  <path class="st0" d="M58.3,1.4c-1.2,4.4-3,8.5-5.3,12.2C46.2,24.7,34.8,32,21.9,32c-4.6,0-9-0.9-13-2.6l1.7,6.3l2.7,10.2
		c4.5,1.7,9.2,2.6,14.2,2.6c18,0,33.5-11.8,40.8-29L58.3,1.4L58.3,1.4z">
  </path>
  <path class="st1" d="M53.1,13.6L45.6,0c-0.8,3.1-2.3,6.1-4.2,8.8C36.5,15.8,28.4,21,18.2,21c-3.1,0-6.2-0.4-9.1-1.2
		c-3.4-0.9-6.5-2.4-9.2-4.6l4.8,18.2c1.5,0.8,3.4,1.6,5.7,2.4c3.3,1,7.4,1.8,12.2,1.8c13.2,0,25.6-8.1,32.9-19.2L53.1,13.6
		L53.1,13.6z">
  </path>
  <path class="st2" d="M41.4,8.8l-4.1-7.5c-3.1,7.2-8.1,12.4-17.6,12.4c-5.2,0-11-2.2-13.2-4.1l2.7,10.2l1.3,4.9c3,1,6.3,1.5,9.6,1.5
		c10.7,0,20-5.9,23.8-13L41.4,8.8z">
  </path>
  <path class="st3" d="M55.7,18.3l-2.6-4.7C46.2,24.7,34.8,32,21.9,32c-4.6,0-9-0.9-13-2.6l1.7,6.3c3.3,1,7.4,1.8,12.2,1.8
		C36,37.6,48.3,29.5,55.7,18.3z">
  </path>
  <path class="st4" d="M58.3,1.4c-1.2,4.4-3,8.5-5.3,12.2l2.6,4.7C48.3,29.5,36,37.6,22.8,37.6c-4.8,0-8.9-0.8-12.2-1.8l2.7,10.2
		c4.5,1.7,9.2,2.6,14.2,2.6c18,0,33.5-11.8,40.8-29L58.3,1.4L58.3,1.4z">
  </path>
  <path class="st5" d="M41.4,8.8l-4.1-7.5c-3.1,7.2-8.1,12.4-17.6,12.4c-5.2,0-11-2.2-13.2-4.1l2.7,10.2c2.9,0.8,6,1.2,9.1,1.2
		C28.4,21,36.5,15.8,41.4,8.8L41.4,8.8z">
  </path>
  <path class="st6" d="M20,26.1c10.7,0,20-5.9,23.8-13l-2.4-4.3C36.5,15.8,28.4,21,18.2,21c-3.1,0-6.2-0.4-9.1-1.2l1.3,4.9
		C13.5,25.6,16.7,26.1,20,26.1L20,26.1z">
  </path>
  <path class="st7" d="M45.6,0c-0.8,3.1-2.3,6.1-4.2,8.8l2.4,4.3c-3.8,7.1-13.1,13-23.8,13c-3.3,0-6.5-0.5-9.6-1.5l-1.3-4.9
		c-3.4-0.9-6.5-2.4-9.2-4.6l4.8,18.2c1.5,0.8,3.4,1.6,5.7,2.4l-1.7-6.3c4.1,1.7,8.4,2.6,13,2.6c12.9,0,24.3-7.3,31.2-18.4L45.6,0z">
  </path>
 </g>
</svg>